<svg version="1" xmlns="http://www.w3.org/2000/svg" width="682.667" height="682.667" viewBox="0 0 512.000000 512.000000"><path d="M230.5 1.1c-5.1 2.8-13.7 14.8-23 32.4-7.3 13.8-9.7 17.7-14.9 24-9.1 11.1-18.3 17.8-34 24.7-6.1 2.6-12.8 6-14.9 7.4-9.7 6.4-10.7 24.3-1.6 29 3.9 2 19.7 1.9 26.9-.1.8-.2 3.1-.7 5-1 1.9-.3 5.3-1 7.5-1.5s4.3-1 4.7-1c.3 0-1.1 3.6-3.3 8-2.1 4.4-3.9 8.2-3.9 8.4 0 .2-2.9 6.4-6.4 13.7-3.5 7.4-7.7 16.3-9.4 19.9-1.7 3.6-5.3 11.2-8 17-2.7 5.8-7.2 15.2-9.9 21-11.3 23.9-15.1 31.7-27.8 57.5-13.3 27.1-15.2 31.8-14 35.4 1 3.3 6 4.1 25.6 3.9 10.3 0 19.1.2 19.7.6.8.5.7 2-.3 5.1-4 13.4-12.9 21.9-42 40-24.5 15.2-30.8 22.1-30.9 34.1-.2 11.1 6.4 16.6 19.9 16.8 6.3.1 7.4-.2 11-2.9 4.9-3.7 10.4-9.3 19.8-20.5 16.5-19.5 22-22.2 25.6-12.4 1.2 3.1 1.5 13.9 1.7 55.9.3 77.5.4 81.8 2.4 86.3 1 2.2 3.3 5 5.1 6.3l3.4 2.4 97.7.3c82.3.2 98.3 0 101.2-1.2 3.8-1.6 8.2-6.9 9.7-11.7.7-2.2 1-37.1.9-101.5l-.1-98.1 24-.1c26.4-.1 31-.8 35.2-5.3 3.1-3.3 3.8-6.1 3.3-13.1-.5-6.5-2.4-10.2-26.4-50.3-11.1-18.7-23.3-39.2-27-45.5l-6.7-11.5.2-11.5c.2-6.3.6-30.2 1-53s.8-42 .8-42.5c.1-.6-10.4-1.1-29.5-1.3L319 65l-2.5 4c-1.4 2.2-2.5 4.2-2.5 4.4 0 .3-1.3 2.5-2.8 5l-2.9 4.5-1.8-2.2c-2.9-3.4-16.8-19-18.5-20.7-.8-.8-6.9-7.6-13.5-15s-13.4-15.1-15.2-17c-6.7-7.4-8.5-9.7-12.2-16C240.4.8 236.2-1.9 230.5 1.1zm-5.9 383.2c4 2.1 8.4 7.2 8.5 10 .7 10.7-1.5 16.9-8.3 23.7-8.4 8.4-19.2 11.4-30.2 8.5-5.4-1.4-10.3-6.1-11.1-10.9-1.6-8.4 4.3-22.5 11.7-27.8 7.7-5.4 22.3-7.2 29.4-3.5z"/></svg>